<svg version="1.1" xmlns="http://www.w3.org/2000/svg" viewBox="0 0 926.6609682155704 565.0381656136385" width="1853.3219364311408" height="1130.076331227277">
  <!-- svg-source:excalidraw -->
  
  <defs>
    <style class="style-fonts">
      @font-face {
        font-family: "Virgil";
        src: url("https://excalidraw.com/Virgil.woff2");
      }
      @font-face {
        font-family: "Cascadia";
        src: url("https://excalidraw.com/Cascadia.woff2");
      }
      @font-face {
        font-family: "Assistant";
        src: url("https://excalidraw.com/Assistant-Regular.woff2");
      }
    </style>
    
  </defs>
  <g stroke-linecap="round" transform="translate(239.11361903144916 324.3767473850846) rotate(0 44.878789611784214 53.64119828680364)"><path d="M22.44 0 C36.46 0.46, 46.59 -0.71, 67.32 0 M22.44 0 C40.09 0.99, 55.47 -0.09, 67.32 0 M67.32 0 C80.92 -0.66, 89.39 6.61, 89.76 22.44 M67.32 0 C82.36 -2.2, 90.4 8.04, 89.76 22.44 M89.76 22.44 C89.2 41.74, 89.51 63.98, 89.76 84.84 M89.76 22.44 C91.11 43.79, 89.37 66.31, 89.76 84.84 M89.76 84.84 C89.02 101.43, 83.48 108.46, 67.32 107.28 M89.76 84.84 C89.57 98.08, 81.8 108.72, 67.32 107.28 M67.32 107.28 C53.73 108.18, 38.8 107.48, 22.44 107.28 M67.32 107.28 C57.5 107.11, 47.77 107.25, 22.44 107.28 M22.44 107.28 C6.33 108.26, 1.95 100.13, 0 84.84 M22.44 107.28 C9.39 107, -0.04 99.36, 0 84.84 M0 84.84 C1.28 59.5, 1.12 37.61, 0 22.44 M0 84.84 C0.62 69.34, -0.88 54.66, 0 22.44 M0 22.44 C-1.61 5.81, 6.81 0.51, 22.44 0 M0 22.44 C0.09 8.88, 7.28 0.94, 22.44 0" stroke="#1e1e1e" stroke-width="2" fill="none"></path></g><g transform="translate(242.41946850313525 329.77335162765235) rotate(0 43.863983154296875 50)"><text x="0" y="14.016" font-family="Virgil, Segoe UI Emoji" font-size="16px" fill="#1e1e1e" text-anchor="start" style="white-space: pre;" direction="ltr" dominant-baseline="alphabetic">00011101011</text><text x="0" y="34.016" font-family="Virgil, Segoe UI Emoji" font-size="16px" fill="#1e1e1e" text-anchor="start" style="white-space: pre;" direction="ltr" dominant-baseline="alphabetic">01111010000</text><text x="0" y="54.016" font-family="Virgil, Segoe UI Emoji" font-size="16px" fill="#1e1e1e" text-anchor="start" style="white-space: pre;" direction="ltr" dominant-baseline="alphabetic">1001010111111</text><text x="0" y="74.016" font-family="Virgil, Segoe UI Emoji" font-size="16px" fill="#1e1e1e" text-anchor="start" style="white-space: pre;" direction="ltr" dominant-baseline="alphabetic">10011100010</text><text x="0" y="94.016" font-family="Virgil, Segoe UI Emoji" font-size="16px" fill="#1e1e1e" text-anchor="start" style="white-space: pre;" direction="ltr" dominant-baseline="alphabetic">0100111111110</text></g><g transform="translate(247.78800542367662 302.7861388775382) rotate(0 35.3919677734375 10)"><text x="0" y="14.016" font-family="Virgil, Segoe UI Emoji" font-size="16px" fill="#1e1e1e" text-anchor="start" style="white-space: pre;" direction="ltr" dominant-baseline="alphabetic">risc-v elf</text></g><g stroke-linecap="round"><g transform="translate(130.92585040627364 379.66081728546794) rotate(0 49.92435260750517 -0.4029810608791422)"><path d="M-1.12 0.7 C15.47 0.42, 82.55 -0.52, 99.25 -0.91 M0.49 0.02 C17.51 -0.14, 84.81 0.7, 101.65 0.57" stroke="#1e1e1e" stroke-width="2" fill="none"></path></g><g transform="translate(130.92585040627364 379.66081728546794) rotate(0 49.92435260750517 -0.4029810608791422)"><path d="M78.13 9.04 C85.73 5.92, 90.88 3.28, 101.65 0.57 M78.13 9.04 C83.74 7.52, 88.18 5.6, 101.65 0.57" stroke="#1e1e1e" stroke-width="2" fill="none"></path></g><g transform="translate(130.92585040627364 379.66081728546794) rotate(0 49.92435260750517 -0.4029810608791422)"><path d="M78.19 -8.06 C85.89 -6.46, 91.02 -4.38, 101.65 0.57 M78.19 -8.06 C83.76 -5.63, 88.19 -3.61, 101.65 0.57" stroke="#1e1e1e" stroke-width="2" fill="none"></path></g></g><mask></mask><g transform="translate(132.22103542448986 352.7806997344126) rotate(0 44.895965576171875 10)"><text x="0" y="14.016" font-family="Virgil, Segoe UI Emoji" font-size="16px" fill="#1e1e1e" text-anchor="start" style="white-space: pre;" direction="ltr" dominant-baseline="alphabetic">cargo-prove</text></g><g stroke-linecap="round" transform="translate(417.2852953849733 97.35012143764297) rotate(0 201.78408123627514 111.34293628289684)"><path d="M32 0 C149.51 0.84, 264.02 0.8, 371.57 0 M32 0 C115.3 -1.06, 197.69 -0.31, 371.57 0 M371.57 0 C394.43 1.32, 402.39 11.28, 403.57 32 M371.57 0 C391.99 -1.13, 404.43 8.74, 403.57 32 M403.57 32 C402.76 93.25, 401.82 154.74, 403.57 190.69 M403.57 32 C404.25 93.09, 402.84 156.54, 403.57 190.69 M403.57 190.69 C405.02 211.72, 394.42 223.44, 371.57 222.69 M403.57 190.69 C405.66 211.2, 392.25 222.99, 371.57 222.69 M371.57 222.69 C288.23 221.18, 207.07 222.22, 32 222.69 M371.57 222.69 C278.13 223.18, 184.96 223.07, 32 222.69 M32 222.69 C11.48 223.49, 0.07 212.69, 0 190.69 M32 222.69 C11.19 222.7, 2.04 210.07, 0 190.69 M0 190.69 C1.11 142.2, 2.22 90.44, 0 32 M0 190.69 C0.4 128.72, 1.79 68.22, 0 32 M0 32 C-0.56 9.86, 11.14 -0.8, 32 0 M0 32 C2.13 9.25, 10.43 1.37, 32 0" stroke="#1e1e1e" stroke-width="2" fill="none"></path></g><g stroke-linecap="round" transform="translate(17.226103991018135 256.2420483977787) rotate(0 47.00774557152863 15.354028995985175)"><path d="M7.68 0 C38.58 1.21, 69.25 -0.94, 86.34 0 M7.68 0 C29.26 1.7, 50.12 0.2, 86.34 0 M86.34 0 C90.44 -1.93, 92.75 2.97, 94.02 7.68 M86.34 0 C89.91 0.26, 93.72 2.89, 94.02 7.68 M94.02 7.68 C93.81 11.38, 93.67 14.34, 94.02 23.03 M94.02 7.68 C93.6 12.29, 94.19 18.94, 94.02 23.03 M94.02 23.03 C92.28 26.67, 91.85 32.08, 86.34 30.71 M94.02 23.03 C93.19 29.09, 91.15 29.68, 86.34 30.71 M86.34 30.71 C59.88 29.69, 32.81 32.25, 7.68 30.71 M86.34 30.71 C67.02 30.85, 45.74 29.9, 7.68 30.71 M7.68 30.71 C3.35 29.68, 1.24 26.81, 0 23.03 M7.68 30.71 C4.36 31.45, 1.95 28.51, 0 23.03 M0 23.03 C-1.22 18.79, -0.67 13.86, 0 7.68 M0 23.03 C-0.17 19.72, -0.58 16.59, 0 7.68 M0 7.68 C-0.77 1.52, 4.45 -1.07, 7.68 0 M0 7.68 C0.55 0.29, 1.84 0.54, 7.68 0" stroke="#1e1e1e" stroke-width="2" fill="none"></path></g><g transform="translate(43.05383392306976 262.0558722299054) rotate(0 22.839981079101562 10)"><text x="0" y="14.016" font-family="Virgil, Segoe UI Emoji" font-size="16px" fill="#1e1e1e" text-anchor="start" style="white-space: pre;" direction="ltr" dominant-baseline="alphabetic">inputs</text></g><g stroke-linecap="round" transform="translate(17.28539769641793 459.0189191116635) rotate(0 47.00774557152863 15.354028995985175)"><path d="M7.68 0 C25.73 0.56, 42.15 -0.32, 86.34 0 M7.68 0 C22.77 1.01, 38.76 0.63, 86.34 0 M86.34 0 C91.38 -0.12, 93.03 2.59, 94.02 7.68 M86.34 0 C93.68 -1.57, 92.87 1.3, 94.02 7.68 M94.02 7.68 C93.03 11.79, 95.04 18.25, 94.02 23.03 M94.02 7.68 C94.64 13.41, 94.45 19.51, 94.02 23.03 M94.02 23.03 C93.44 26.48, 93.34 29.97, 86.34 30.71 M94.02 23.03 C93.51 27.36, 93.39 29.57, 86.34 30.71 M86.34 30.71 C61.28 31.53, 37 31.96, 7.68 30.71 M86.34 30.71 C65.23 30.97, 44.24 31.83, 7.68 30.71 M7.68 30.71 C2.8 28.97, 0.4 27.43, 0 23.03 M7.68 30.71 C4.35 29.68, -0.55 26.88, 0 23.03 M0 23.03 C1.42 18.93, 0.98 17.94, 0 7.68 M0 23.03 C-0.52 18.51, 0.8 14.8, 0 7.68 M0 7.68 C-0.35 3.36, 1.45 -1.35, 7.68 0 M0 7.68 C2.13 3.06, 3.28 1.47, 7.68 0" stroke="#1e1e1e" stroke-width="2" fill="none"></path></g><g transform="translate(38.932161221996466 464.67158569321344) rotate(0 26.503982543945312 10)"><text x="0" y="14.016" font-family="Virgil, Segoe UI Emoji" font-size="16px" fill="#1e1e1e" text-anchor="start" style="white-space: pre;" direction="ltr" dominant-baseline="alphabetic">output</text></g><g stroke-linecap="round"><g transform="translate(65.65233743790577 294.62484036061085) rotate(0 -0.7860216844169372 7.835891221438544)"><path d="M-0.44 -0.42 C-0.58 2.04, -0.94 12.61, -1.04 15.29 M0.33 0.56 C0.18 3.31, -0.95 13.17, -1.19 15.8" stroke="#1e1e1e" stroke-width="2" fill="none"></path></g><g transform="translate(65.65233743790577 294.62484036061085) rotate(0 -0.7860216844169372 7.835891221438544)"><path d="M-3.11 8.16 C-2.87 10.57, -2.33 12.59, -1.19 15.8 M-3.11 8.16 C-2.37 10.49, -1.88 12.77, -1.19 15.8" stroke="#1e1e1e" stroke-width="2" fill="none"></path></g><g transform="translate(65.65233743790577 294.62484036061085) rotate(0 -0.7860216844169372 7.835891221438544)"><path d="M2.25 8.72 C1.07 10.95, 0.2 12.82, -1.19 15.8 M2.25 8.72 C1.35 10.88, 0.22 12.99, -1.19 15.8" stroke="#1e1e1e" stroke-width="2" fill="none"></path></g></g><mask></mask><g stroke-linecap="round"><g transform="translate(64.49382965545738 441.8100613826254) rotate(0 -0.4135355863854784 6.604406570805054)"><path d="M0.42 -0.32 C0.14 1.92, -0.95 11.38, -1.18 13.63 M-0.03 0.71 C-0.17 2.77, 0.09 10.71, -0.14 12.88" stroke="#1e1e1e" stroke-width="2" fill="none"></path></g><g transform="translate(64.49382965545738 441.8100613826254) rotate(0 -0.4135355863854784 6.604406570805054)"><path d="M-2.21 6.6 C-1.59 8.81, -0.34 11.37, -0.14 12.88 M-2.21 6.6 C-1.6 8.61, -1.12 10.25, -0.14 12.88" stroke="#1e1e1e" stroke-width="2" fill="none"></path></g><g transform="translate(64.49382965545738 441.8100613826254) rotate(0 -0.4135355863854784 6.604406570805054)"><path d="M2.31 6.73 C1.19 8.91, 0.68 11.42, -0.14 12.88 M2.31 6.73 C1.59 8.72, 0.74 10.32, -0.14 12.88" stroke="#1e1e1e" stroke-width="2" fill="none"></path></g></g><mask></mask><g stroke-linecap="round" transform="translate(435.09165122228205 136.29349677677277) rotate(0 26.464065070254946 73.31966330252999)"><path d="M13.23 0 C23.41 1.9, 35.17 -0.67, 39.7 0 M13.23 0 C21.82 0.48, 32.92 0.48, 39.7 0 M39.7 0 C47.45 -1.11, 53.84 3.41, 52.93 13.23 M39.7 0 C46.94 1.42, 52.07 2.87, 52.93 13.23 M52.93 13.23 C51.77 44.23, 51.1 73.37, 52.93 133.41 M52.93 13.23 C52.15 42.05, 51.93 70.51, 52.93 133.41 M52.93 133.41 C52.55 144.13, 46.57 145.09, 39.7 146.64 M52.93 133.41 C53.1 141.64, 47.4 148.14, 39.7 146.64 M39.7 146.64 C32.87 148.57, 28.97 147.9, 13.23 146.64 M39.7 146.64 C31.95 147.51, 23.78 146.11, 13.23 146.64 M13.23 146.64 C4.43 145.85, 1.5 140.87, 0 133.41 M13.23 146.64 C5.14 145.79, -2.06 144.43, 0 133.41 M0 133.41 C-1.41 97.31, 1.38 60.07, 0 13.23 M0 133.41 C-0.64 88.91, -0.09 42.51, 0 13.23 M0 13.23 C1.09 3.14, 6.23 -0.63, 13.23 0 M0 13.23 C0.96 5.16, 2.41 -0.79, 13.23 0" stroke="#1e1e1e" stroke-width="2" fill="none"></path></g><g transform="translate(418.26054448537616 194.17820427436226) rotate(269.42221048033315 42.159498196208006 15.887682339990903)"><text x="0" y="22.268175567731255" font-family="Virgil, Segoe UI Emoji" font-size="25.42029174398545px" fill="#1e1e1e" text-anchor="start" style="white-space: pre;" direction="ltr" dominant-baseline="alphabetic">sp1-sdk</text></g><g stroke-linecap="round" transform="translate(105.05072414965616 100.84692970487396) rotate(0 84.25331467180013 26.93302541478141)"><path d="M13.47 0 C55.18 -2.48, 92.36 -1.86, 155.04 0 M13.47 0 C53.85 -0.02, 96.52 0.97, 155.04 0 M155.04 0 C162.43 -0.36, 167.44 5.64, 168.51 13.47 M155.04 0 C164.05 1.41, 167.91 5.11, 168.51 13.47 M168.51 13.47 C168.25 24.12, 167.12 35.25, 168.51 40.4 M168.51 13.47 C167.99 21.25, 168.13 28.05, 168.51 40.4 M168.51 40.4 C166.65 48.3, 162.27 52.39, 155.04 53.87 M168.51 40.4 C168.36 49.79, 165.51 52.59, 155.04 53.87 M155.04 53.87 C120.67 56.21, 82.79 54.96, 13.47 53.87 M155.04 53.87 C100.72 54.81, 47.23 54.95, 13.47 53.87 M13.47 53.87 C3.81 53.34, -1.32 50.13, 0 40.4 M13.47 53.87 C5.13 56.12, 1.25 48.23, 0 40.4 M0 40.4 C0.97 30.21, 0.12 21.53, 0 13.47 M0 40.4 C-0.11 32.93, 0.75 24.62, 0 13.47 M0 13.47 C-0.71 4.32, 5.13 1.31, 13.47 0 M0 13.47 C-2.22 5.6, 5.43 2.16, 13.47 0" stroke="#1e1e1e" stroke-width="2" fill="none"></path></g><g transform="translate(130.10915626291717 118.33705244671114) rotate(0 57.08795928955078 10)"><text x="0" y="14.016" font-family="Virgil, Segoe UI Emoji" font-size="16px" fill="#1e1e1e" text-anchor="start" style="white-space: pre;" direction="ltr" dominant-baseline="alphabetic">prover network</text></g><g stroke-linecap="round"><g transform="translate(343.2411405020666 340.61139793778574) rotate(0 49.00648926572694 -38.03221799511084)"><path d="M-0.68 -0.4 C15.71 -13.06, 81.71 -64.27, 98.05 -77 M1.16 -1.65 C17.42 -14.1, 81.27 -63.58, 97.12 -75.95" stroke="#1e1e1e" stroke-width="2" fill="none"></path></g><g transform="translate(343.2411405020666 340.61139793778574) rotate(0 49.00648926572694 -38.03221799511084)"><path d="M83.82 -54.78 C87.02 -60.51, 89.81 -67.48, 97.12 -75.95 M83.82 -54.78 C86.55 -59.88, 89.16 -65.63, 97.12 -75.95" stroke="#1e1e1e" stroke-width="2" fill="none"></path></g><g transform="translate(343.2411405020666 340.61139793778574) rotate(0 49.00648926572694 -38.03221799511084)"><path d="M73.32 -68.29 C79.31 -70.21, 85.01 -73.45, 97.12 -75.95 M73.32 -68.29 C78.64 -70.13, 83.76 -72.65, 97.12 -75.95" stroke="#1e1e1e" stroke-width="2" fill="none"></path></g></g><mask></mask><g stroke-linecap="round"><g transform="translate(282.90447402670725 121.67644243041366) rotate(0 77.13527373536999 24.99184275465467)"><path d="M-0.33 -1.17 C25.35 7.05, 128.97 40.44, 154.55 48.83 M1.7 0.83 C27.21 9.19, 128.11 41.56, 153.75 49.76" stroke="#1e1e1e" stroke-width="2" fill="none"></path></g><g transform="translate(282.90447402670725 121.67644243041366) rotate(0 77.13527373536999 24.99184275465467)"><path d="M24.66 -2.1 C14.23 -1.39, 5.79 -3.36, -0.33 -1.17 M24.66 -2.1 C18.76 -2.4, 13.31 -1.64, -0.33 -1.17" stroke="#1e1e1e" stroke-width="2" fill="none"></path></g><g transform="translate(282.90447402670725 121.67644243041366) rotate(0 77.13527373536999 24.99184275465467)"><path d="M19.41 14.17 C10.83 9.38, 4.17 1.89, -0.33 -1.17 M19.41 14.17 C14.83 10.14, 10.61 7.12, -0.33 -1.17" stroke="#1e1e1e" stroke-width="2" fill="none"></path></g><g transform="translate(282.90447402670725 121.67644243041366) rotate(0 77.13527373536999 24.99184275465467)"><path d="M128.77 50.73 C135.29 50.94, 143.79 48.32, 153.75 49.76 M128.77 50.73 C134.5 50.45, 140.67 50.77, 153.75 49.76" stroke="#1e1e1e" stroke-width="2" fill="none"></path></g><g transform="translate(282.90447402670725 121.67644243041366) rotate(0 77.13527373536999 24.99184275465467)"><path d="M133.99 34.45 C138.68 40.16, 145.4 43.06, 153.75 49.76 M133.99 34.45 C138.4 37.9, 143.36 42.01, 153.75 49.76" stroke="#1e1e1e" stroke-width="2" fill="none"></path></g></g><mask></mask><g stroke-linecap="round" transform="translate(544.4463398885291 135.11722615665497) rotate(0 47.00774557152863 15.354028995985175)"><path d="M7.68 0 C33.77 -0.77, 59.24 -1.14, 86.34 0 M7.68 0 C28.77 -1.11, 48.64 -0.31, 86.34 0 M86.34 0 C90.41 1.67, 94.97 3.08, 94.02 7.68 M86.34 0 C93.53 -2.12, 96.31 0.71, 94.02 7.68 M94.02 7.68 C94.11 11.98, 93.1 14.42, 94.02 23.03 M94.02 7.68 C93.34 12.2, 94.71 14.56, 94.02 23.03 M94.02 23.03 C93.24 27.51, 92.62 32.61, 86.34 30.71 M94.02 23.03 C91.96 26.85, 92.96 31.77, 86.34 30.71 M86.34 30.71 C65.53 29.5, 46.02 31.4, 7.68 30.71 M86.34 30.71 C56.56 31.74, 26.93 31.89, 7.68 30.71 M7.68 30.71 C1.38 32.17, 1.37 27.52, 0 23.03 M7.68 30.71 C1.05 29.6, -0.64 27.76, 0 23.03 M0 23.03 C-0.61 19.19, -0.92 15.48, 0 7.68 M0 23.03 C-0.04 17.4, -0.16 12.76, 0 7.68 M0 7.68 C-1.52 0.71, 2.43 -1.43, 7.68 0 M0 7.68 C1.73 2.95, 1.57 -1.27, 7.68 0" stroke="#1e1e1e" stroke-width="2" fill="none"></path></g><g transform="translate(570.2740698205798 140.93104998878164) rotate(0 22.839981079101562 10)"><text x="0" y="14.016" font-family="Virgil, Segoe UI Emoji" font-size="16px" fill="#1e1e1e" text-anchor="start" style="white-space: pre;" direction="ltr" dominant-baseline="alphabetic">inputs</text></g><g stroke-linecap="round" transform="translate(545.1696551232953 215.39476678225907) rotate(0 47.00774557152863 15.354028995985175)"><path d="M7.68 0 C37.83 2.05, 66.83 -0.17, 86.34 0 M7.68 0 C37.42 -0.1, 68.24 0.47, 86.34 0 M86.34 0 C90.8 -0.64, 93.56 2.42, 94.02 7.68 M86.34 0 C90.16 1.19, 94.97 0.48, 94.02 7.68 M94.02 7.68 C92.78 10.8, 95.58 15.58, 94.02 23.03 M94.02 7.68 C94.58 12.84, 94.52 17.06, 94.02 23.03 M94.02 23.03 C93.96 30.04, 92.32 30.75, 86.34 30.71 M94.02 23.03 C96.25 29.26, 92.51 29.57, 86.34 30.71 M86.34 30.71 C70.75 30.43, 52.48 31.25, 7.68 30.71 M86.34 30.71 C64.04 31.29, 40.3 29.94, 7.68 30.71 M7.68 30.71 C4.39 32.17, 0.1 27.44, 0 23.03 M7.68 30.71 C3.02 32.56, 0.39 27.05, 0 23.03 M0 23.03 C-0.33 20.17, -0.37 15.22, 0 7.68 M0 23.03 C0.24 16.47, -0.21 11.43, 0 7.68 M0 7.68 C-0.35 0.74, 2.32 -0.65, 7.68 0 M0 7.68 C1.32 1.1, 3.73 -1.65, 7.68 0" stroke="#1e1e1e" stroke-width="2" fill="none"></path></g><g transform="translate(566.816418648873 221.04743336380903) rotate(0 26.503982543945312 10)"><text x="0" y="14.016" font-family="Virgil, Segoe UI Emoji" font-size="16px" fill="#1e1e1e" text-anchor="start" style="white-space: pre;" direction="ltr" dominant-baseline="alphabetic">output</text></g><g stroke-linecap="round" transform="translate(545.8933423994686 258.819044055586) rotate(0 47.00774557152863 15.354028995985175)"><path d="M7.68 0 C34.04 -1.37, 57.5 -1.98, 86.34 0 M7.68 0 C24.91 -0.48, 44.4 -0.9, 86.34 0 M86.34 0 C91.55 1.7, 92.2 4.3, 94.02 7.68 M86.34 0 C90.88 0.58, 94.36 2.27, 94.02 7.68 M94.02 7.68 C94.43 11.47, 93.37 18.27, 94.02 23.03 M94.02 7.68 C93.46 12.72, 94.59 18.55, 94.02 23.03 M94.02 23.03 C92.91 27.2, 89.52 30.7, 86.34 30.71 M94.02 23.03 C95.71 27.14, 91.1 29.72, 86.34 30.71 M86.34 30.71 C61.14 28.44, 33.02 29.38, 7.68 30.71 M86.34 30.71 C56.23 30.65, 24.87 29.57, 7.68 30.71 M7.68 30.71 C0.96 29.01, 0.75 26.74, 0 23.03 M7.68 30.71 C0.67 30.23, -0.65 26.6, 0 23.03 M0 23.03 C-0.69 18.49, 1 12.13, 0 7.68 M0 23.03 C-0.05 19.34, -0.45 13.76, 0 7.68 M0 7.68 C-0.66 4.26, 3.93 0.38, 7.68 0 M0 7.68 C-2.12 4.78, 3.52 -2.25, 7.68 0" stroke="#1e1e1e" stroke-width="2" fill="none"></path></g><g transform="translate(567.5401059250462 264.47171063713597) rotate(0 20.13597869873047 10)"><text x="0" y="14.016" font-family="Virgil, Segoe UI Emoji" font-size="16px" fill="#1e1e1e" text-anchor="start" style="white-space: pre;" direction="ltr" dominant-baseline="alphabetic">proof</text></g><g stroke-linecap="round"><g transform="translate(537.3377409226041 150.14502529365973) rotate(0 -20.723618196559073 4.203221463434971)"><path d="M0.23 -0.35 C-6.73 1.15, -34.38 7.17, -41.34 8.67 M-0.31 0.66 C-7.37 2.02, -34.78 6.66, -41.72 7.84" stroke="#1e1e1e" stroke-width="2" fill="none"></path></g><g transform="translate(537.3377409226041 150.14502529365973) rotate(0 -20.723618196559073 4.203221463434971)"><path d="M-23.34 -2.62 C-31 1.58, -36.87 5.16, -41.72 7.84 M-23.34 -2.62 C-29.76 0.93, -35.58 4.39, -41.72 7.84" stroke="#1e1e1e" stroke-width="2" fill="none"></path></g><g transform="translate(537.3377409226041 150.14502529365973) rotate(0 -20.723618196559073 4.203221463434971)"><path d="M-20.92 11.64 C-29.46 10.43, -36.25 8.59, -41.72 7.84 M-20.92 11.64 C-28.19 10.26, -34.85 8.8, -41.72 7.84" stroke="#1e1e1e" stroke-width="2" fill="none"></path></g></g><mask></mask><g transform="translate(312.05065599997033 162.01066735300586) rotate(17.16779128290952 36.27997589111328 10.000000000000014)"><text x="0" y="14.016" font-family="Virgil, Segoe UI Emoji" font-size="16px" fill="#1e1e1e" text-anchor="start" style="white-space: pre;" direction="ltr" dominant-baseline="alphabetic">(optional)</text></g><g stroke-linecap="round" transform="translate(528.5216170245067 197.1399072758927) rotate(0 63.81675087696567 54.05153370286811)"><path d="M27.03 0 C41.66 -0.07, 57.76 -0.21, 100.61 0 M100.61 0 C117.45 0.81, 126.97 7.92, 127.63 27.03 M127.63 27.03 C128.58 38.41, 129.22 51.36, 127.63 81.08 M127.63 81.08 C125.66 101.04, 117.44 107.31, 100.61 108.1 M100.61 108.1 C72.87 106.25, 47.66 107.46, 27.03 108.1 M27.03 108.1 C8.06 109.37, -1.83 97.43, 0 81.08 M0 81.08 C0.75 67.64, -0.12 51.89, 0 27.03 M0 27.03 C-1.04 9.29, 9.58 1.41, 27.03 0" stroke="#1e1e1e" stroke-width="2.5" fill="none" stroke-dasharray="8 10"></path></g><g stroke-linecap="round"><g transform="translate(495.8431835915226 261.9707325503555) rotate(0 11.908912677052285 0.6735156792971111)"><path d="M0.48 0.54 C4.52 0.68, 20.01 0.97, 23.98 1.18 M0.06 0.35 C4.06 0.54, 19.61 1.69, 23.63 1.79" stroke="#1e1e1e" stroke-width="2" fill="none"></path></g><g transform="translate(495.8431835915226 261.9707325503555) rotate(0 11.908912677052285 0.6735156792971111)"><path d="M12.22 5.27 C15.71 4.51, 17.86 3.94, 23.63 1.79 M12.22 5.27 C16.56 4.13, 20.9 2.79, 23.63 1.79" stroke="#1e1e1e" stroke-width="2" fill="none"></path></g><g transform="translate(495.8431835915226 261.9707325503555) rotate(0 11.908912677052285 0.6735156792971111)"><path d="M12.65 -2.87 C16.06 -1.55, 18.09 -0.04, 23.63 1.79 M12.65 -2.87 C16.84 -0.88, 21.01 0.92, 23.63 1.79" stroke="#1e1e1e" stroke-width="2" fill="none"></path></g></g><mask></mask><g stroke-linecap="round" transform="translate(745.0315370541912 413.8842464902345) rotate(0 63.65711397781024 45.70328405270925)"><path d="M22.85 0 C51.74 0.47, 78.85 1.62, 104.46 0 M22.85 0 C52.46 -0.57, 81.23 0.43, 104.46 0 M104.46 0 C119.18 1, 126.15 7.35, 127.31 22.85 M104.46 0 C119.41 -0.92, 126.95 9.27, 127.31 22.85 M127.31 22.85 C127.92 33.78, 125.18 47.46, 127.31 68.55 M127.31 22.85 C128.46 36.78, 128.24 49.47, 127.31 68.55 M127.31 68.55 C125.69 82.13, 120.22 91.13, 104.46 91.41 M127.31 68.55 C127.41 82.29, 118.09 91.89, 104.46 91.41 M104.46 91.41 C88.28 92.28, 71.9 91.68, 22.85 91.41 M104.46 91.41 C83.04 90.61, 63.28 90.74, 22.85 91.41 M22.85 91.41 C9.29 90.79, 1.35 82.32, 0 68.55 M22.85 91.41 C7.33 92.66, 0.21 84.55, 0 68.55 M0 68.55 C1.45 49.98, -1.08 35.21, 0 22.85 M0 68.55 C0.88 54.92, 0.94 42.08, 0 22.85 M0 22.85 C1.54 7.38, 7.85 0.55, 22.85 0 M0 22.85 C1.09 7.55, 8.16 -0.78, 22.85 0" stroke="#1e1e1e" stroke-width="2" fill="none"></path></g><g transform="translate(757.7203900099785 448.78847440288206) rotate(0 52.55194854736328 10)"><text x="0" y="14.016" font-family="Virgil, Segoe UI Emoji" font-size="16px" fill="#1e1e1e" text-anchor="start" style="white-space: pre;" direction="ltr" dominant-baseline="alphabetic">SP1Verifier.sol</text></g><g stroke-linecap="round" transform="translate(421.6831969347595 417.41906354297885) rotate(0 104.27026147456763 42.270330545140695)"><path d="M21.14 0 C66.41 -0.35, 107.9 -0.45, 187.41 0 M21.14 0 C63.47 0.09, 104.73 0.54, 187.41 0 M187.41 0 C201.19 1.94, 207.14 8.51, 208.54 21.14 M187.41 0 C200.29 0.09, 206.52 9.06, 208.54 21.14 M208.54 21.14 C209.16 31.39, 209.78 40.54, 208.54 63.41 M208.54 21.14 C208 34.24, 207.69 48.64, 208.54 63.41 M208.54 63.41 C207.27 76.09, 201.26 82.67, 187.41 84.54 M208.54 63.41 C210.56 76.18, 202.3 85.17, 187.41 84.54 M187.41 84.54 C132.53 83.5, 73.93 85.17, 21.14 84.54 M187.41 84.54 C145.58 85.21, 105.53 86.26, 21.14 84.54 M21.14 84.54 C5.19 86.27, -0.84 79.18, 0 63.41 M21.14 84.54 C5.56 85.64, 0.7 76.09, 0 63.41 M0 63.41 C1.52 52.55, 1.45 43.56, 0 21.14 M0 63.41 C-0.65 54.61, -0.54 45.8, 0 21.14 M0 21.14 C1.34 7.88, 8.32 -1.46, 21.14 0 M0 21.14 C-0.17 7.34, 7.06 -1.88, 21.14 0" stroke="#1e1e1e" stroke-width="2" fill="none"></path></g><g transform="translate(434.3720498905468 452.3232914556266) rotate(0 91.55992889404297 10)"><text x="0" y="14.016" font-family="Virgil, Segoe UI Emoji" font-size="16px" fill="#1e1e1e" text-anchor="start" style="white-space: pre;" direction="ltr" dominant-baseline="alphabetic">SP1ICS07Tendermint.sol</text></g><g stroke-linecap="round"><g transform="translate(643.4355737283458 459.09890555909107) rotate(0 47.33766182978525 0.12721953203259773)"><path d="M0.94 0.63 C16.79 0.94, 79.41 1.56, 95.22 1.35 M-0.03 -0.09 C15.71 -0.03, 78.61 -0.25, 94.56 -0.2" stroke="#1e1e1e" stroke-width="2" fill="none"></path></g><g transform="translate(643.4355737283458 459.09890555909107) rotate(0 47.33766182978525 0.12721953203259773)"><path d="M71.07 8.36 C79.35 6.47, 87.32 4.86, 94.56 -0.2 M71.07 8.36 C77.15 7.18, 82 5.39, 94.56 -0.2" stroke="#1e1e1e" stroke-width="2" fill="none"></path></g><g transform="translate(643.4355737283458 459.09890555909107) rotate(0 47.33766182978525 0.12721953203259773)"><path d="M71.06 -8.74 C79.27 -5.4, 87.24 -1.77, 94.56 -0.2 M71.06 -8.74 C77.17 -6.02, 82.02 -3.9, 94.56 -0.2" stroke="#1e1e1e" stroke-width="2" fill="none"></path></g></g><mask></mask><g transform="translate(646.4671544608927 427.5217987324355) rotate(0 42.87196350097656 10.000000000000028)"><text x="0" y="14.016" font-family="Virgil, Segoe UI Emoji" font-size="16px" fill="#1e1e1e" text-anchor="start" style="white-space: pre;" direction="ltr" dominant-baseline="alphabetic">verifyProof</text></g><g stroke-linecap="round" transform="translate(394.3594412049006 380.93214980155415) rotate(0 261.1507635053349 87.05300790604221)"><path d="M32 0 C192.68 -1.48, 354.8 -1.32, 490.3 0 M490.3 0 C509.74 1.02, 522.46 9.97, 522.3 32 M522.3 32 C521.51 76.55, 523.93 117.52, 522.3 142.11 M522.3 142.11 C521 164.59, 513.53 174.9, 490.3 174.11 M490.3 174.11 C371.3 172.92, 252.15 172.89, 32 174.11 M32 174.11 C10.53 173.67, 1.85 164.82, 0 142.11 M0 142.11 C-0.57 111.95, -2.16 81.3, 0 32 M0 32 C-1.75 11.72, 11.16 -1.51, 32 0" stroke="#1e1e1e" stroke-width="2.5" fill="none" stroke-dasharray="8 10"></path></g><g transform="translate(417.2775243197775 522.19553179114) rotate(0 19.569992065429688 12.5)"><text x="0" y="17.52" font-family="Virgil, Segoe UI Emoji" font-size="20px" fill="#1e1e1e" text-anchor="start" style="white-space: pre;" direction="ltr" dominant-baseline="alphabetic">EVM</text></g><g stroke-linecap="round"><g transform="translate(565.0154415732359 307.9096710732477) rotate(0 -19.496200929590486 53.39778259203791)"><path d="M0.68 0.91 C-5.69 18.48, -32.04 88.55, -38.83 106.36 M-0.42 0.34 C-6.89 17.99, -33.47 90.07, -39.69 107.66" stroke="#1e1e1e" stroke-width="2" fill="none"></path></g><g transform="translate(565.0154415732359 307.9096710732477) rotate(0 -19.496200929590486 53.39778259203791)"><path d="M-39.73 82.66 C-38 89.25, -40.24 93.52, -39.69 107.66 M-39.73 82.66 C-39.69 91.82, -40.57 100.72, -39.69 107.66" stroke="#1e1e1e" stroke-width="2" fill="none"></path></g><g transform="translate(565.0154415732359 307.9096710732477) rotate(0 -19.496200929590486 53.39778259203791)"><path d="M-23.65 88.49 C-26.03 93.7, -32.33 96.49, -39.69 107.66 M-23.65 88.49 C-29.66 95.39, -36.64 102.08, -39.69 107.66" stroke="#1e1e1e" stroke-width="2" fill="none"></path></g></g><mask></mask><g transform="translate(709.5556570074214 193.13834233704392) rotate(0 42.39995574951172 12.5)"><text x="0" y="17.52" font-family="Virgil, Segoe UI Emoji" font-size="20px" fill="#1e1e1e" text-anchor="start" style="white-space: pre;" direction="ltr" dominant-baseline="alphabetic">operator</text></g><g transform="translate(561.0222689071779 340.97321027024736) rotate(0 94.74993896484375 12.5)"><text x="0" y="17.52" font-family="Virgil, Segoe UI Emoji" font-size="20px" fill="#1e1e1e" text-anchor="start" style="white-space: pre;" direction="ltr" dominant-baseline="alphabetic">( evm tx via RPC )</text></g><g stroke-linecap="round" transform="translate(528.0789862104293 10) rotate(0 65.291015625 21.197265625)"><path d="M10.6 0 C32.8 -0.26, 56.76 0.77, 119.98 0 M10.6 0 C41.16 -1.06, 71.57 -1.31, 119.98 0 M119.98 0 C128.72 0.97, 130.02 5.48, 130.58 10.6 M119.98 0 C128.7 1.72, 130.64 5.49, 130.58 10.6 M130.58 10.6 C129.01 18.8, 132.6 27.52, 130.58 31.8 M130.58 10.6 C131.34 17.94, 129.44 24.01, 130.58 31.8 M130.58 31.8 C130.63 40.6, 125.79 41.73, 119.98 42.39 M130.58 31.8 C131.6 37.52, 128.05 43.96, 119.98 42.39 M119.98 42.39 C94.57 44.43, 67.08 43.47, 10.6 42.39 M119.98 42.39 C86.75 43.43, 54.33 43.81, 10.6 42.39 M10.6 42.39 C3.56 41.86, 0.74 40.43, 0 31.8 M10.6 42.39 C1.86 44.09, 0.32 38.83, 0 31.8 M0 31.8 C0.64 25.22, -1.65 21.13, 0 10.6 M0 31.8 C0.4 22.59, 0.71 14.85, 0 10.6 M0 10.6 C1.2 2.46, 3.29 1, 10.6 0 M0 10.6 C0.32 5.38, 1.82 -0.32, 10.6 0" stroke="#1e1e1e" stroke-width="2" fill="none"></path></g><g transform="translate(538.9852362104293 22.4609375) rotate(0 54.75995635986328 10)"><text x="0" y="14.016" font-family="Virgil, Segoe UI Emoji" font-size="16px" fill="#1e1e1e" text-anchor="start" style="white-space: pre;" direction="ltr" dominant-baseline="alphabetic">tendermint-rpc</text></g><g stroke-linecap="round"><g transform="translate(594.6297674604293 60.890625) rotate(0 -1.14453125 34.408203125)"><path d="M-0.19 1.18 C-0.54 13, -1.45 58.77, -1.72 70 M-1.74 0.76 C-2.24 12.35, -2.27 57, -2.37 68.49" stroke="#1e1e1e" stroke-width="2" fill="none"></path></g><g transform="translate(594.6297674604293 60.890625) rotate(0 -1.14453125 34.408203125)"><path d="M-10.8 44.96 C-6.21 53.75, -3.4 61.37, -2.37 68.49 M-10.8 44.96 C-9.07 50.54, -7.03 57.88, -2.37 68.49" stroke="#1e1e1e" stroke-width="2" fill="none"></path></g><g transform="translate(594.6297674604293 60.890625) rotate(0 -1.14453125 34.408203125)"><path d="M6.3 45.05 C5.2 53.78, 2.32 61.37, -2.37 68.49 M6.3 45.05 C3.3 50.66, 0.61 57.97, -2.37 68.49" stroke="#1e1e1e" stroke-width="2" fill="none"></path></g></g><mask></mask><g stroke-linecap="round" transform="translate(10 313.69251886911957) rotate(0 54.14627852853528 59.96727592027571)"><path d="M27.07 0 C47.37 -0.87, 63.14 0.26, 81.22 0 M27.07 0 C40.78 0.57, 55.46 0.57, 81.22 0 M81.22 0 C97.61 1.17, 107.19 9.43, 108.29 27.07 M81.22 0 C98.97 0.84, 107.84 10.98, 108.29 27.07 M108.29 27.07 C109.21 44.65, 110.43 65.83, 108.29 92.86 M108.29 27.07 C107.86 46.9, 109 65.14, 108.29 92.86 M108.29 92.86 C109.9 111.08, 97.51 118.77, 81.22 119.93 M108.29 92.86 C109.09 112.49, 97.09 121.25, 81.22 119.93 M81.22 119.93 C60.18 119.82, 42.86 118.84, 27.07 119.93 M81.22 119.93 C68.21 119.77, 55.84 120.79, 27.07 119.93 M27.07 119.93 C10.3 120.29, 0.37 111.38, 0 92.86 M27.07 119.93 C8.69 119.64, -1.72 111.69, 0 92.86 M0 92.86 C-0.95 77.75, -0.33 61.23, 0 27.07 M0 92.86 C0.04 69.59, 0.38 43.68, 0 27.07 M0 27.07 C0.65 8.1, 8.16 0.57, 27.07 0 M0 27.07 C-0.32 8.43, 10.66 0.87, 27.07 0" stroke="#1e1e1e" stroke-width="2" fill="none"></path></g><g transform="translate(17.58728468073332 328.37432159624234) rotate(0 46.946922302246094 18.389401865339835)"><text x="46.946922302246094" y="12.887292827230162" font-family="Virgil, Segoe UI Emoji" font-size="14.711521492271874px" fill="#1e1e1e" text-anchor="middle" style="white-space: pre;" direction="ltr" dominant-baseline="alphabetic">update-client</text><text x="46.946922302246094" y="31.276694692570004" font-family="Virgil, Segoe UI Emoji" font-size="14.711521492271874px" fill="#1e1e1e" text-anchor="middle" style="white-space: pre;" direction="ltr" dominant-baseline="alphabetic">rust program</text></g><g stroke-linecap="round" transform="translate(30.4173709373199 375.79539229901224) rotate(0 32.612358322552154 10.652097632505985)"><path d="M5.33 0 C28.36 -0.49, 50.35 1.3, 59.9 0 M5.33 0 C26.41 0.74, 47.28 0.8, 59.9 0 M59.9 0 C62.34 1.38, 63.26 1.08, 65.22 5.33 M59.9 0 C63 -1.7, 63.43 1.64, 65.22 5.33 M65.22 5.33 C64.97 7.16, 64.77 10.6, 65.22 15.98 M65.22 5.33 C64.73 9.1, 64.92 13.41, 65.22 15.98 M65.22 15.98 C63.91 21.42, 65.21 20.69, 59.9 21.3 M65.22 15.98 C63.78 19.33, 64.9 19.68, 59.9 21.3 M59.9 21.3 C41.83 22.17, 18.93 19.69, 5.33 21.3 M59.9 21.3 C42.62 20.6, 24.81 20.03, 5.33 21.3 M5.33 21.3 C2.88 21.12, -1.66 18.96, 0 15.98 M5.33 21.3 C2.22 19.79, 2.09 18.73, 0 15.98 M0 15.98 C-0.46 12.13, 0.86 9.31, 0 5.33 M0 15.98 C0.41 11.26, -0.25 7.44, 0 5.33 M0 5.33 C-1.87 1.78, 0.16 -1.5, 5.33 0 M0 5.33 C1.37 0.53, -0.35 1.46, 5.33 0" stroke="#1e1e1e" stroke-width="2" fill="none"></path></g><g transform="translate(49.07670137030527 379.8288234651379) rotate(0 14.502128601074219 6.937656321537077)"><text x="0" y="9.723819100266349" font-family="Virgil, Segoe UI Emoji" font-size="11.100250114459303px" fill="#1e1e1e" text-anchor="start" style="white-space: pre;" direction="ltr" dominant-baseline="alphabetic">ibc-rs</text></g><g stroke-linecap="round" transform="translate(30.407193203121096 403.1655369387675) rotate(0 32.612358322552154 10.652097632505985)"><path d="M5.33 0 C25.2 0.73, 41.67 -1.9, 59.9 0 M5.33 0 C24.2 0.14, 42.37 0.04, 59.9 0 M59.9 0 C63.76 -1.66, 65.21 1.06, 65.22 5.33 M59.9 0 C64.69 1.04, 62.94 2.71, 65.22 5.33 M65.22 5.33 C64.61 7.76, 66.14 12.48, 65.22 15.98 M65.22 5.33 C65.04 7.94, 65.65 9.63, 65.22 15.98 M65.22 15.98 C64.17 18.54, 62.44 23.01, 59.9 21.3 M65.22 15.98 C65.39 17.98, 62.71 21.6, 59.9 21.3 M59.9 21.3 C47.78 21.82, 30.17 20.51, 5.33 21.3 M59.9 21.3 C37.69 21.27, 15.51 20.33, 5.33 21.3 M5.33 21.3 C2.39 21.7, 1.66 17.9, 0 15.98 M5.33 21.3 C-0.33 21.25, -0.24 19.73, 0 15.98 M0 15.98 C0.92 13.34, -0.63 9.83, 0 5.33 M0 15.98 C-0.25 13.34, 0.06 9.44, 0 5.33 M0 5.33 C-1.57 3.11, 1.27 -1.44, 5.33 0 M0 5.33 C0.52 0.77, 3.77 -1.66, 5.33 0" stroke="#1e1e1e" stroke-width="2" fill="none"></path></g><g transform="translate(40.810345655073434 407.19896810489314) rotate(0 24.131370544433594 6.937656321537077)"><text x="0" y="9.723819100266349" font-family="Virgil, Segoe UI Emoji" font-size="11.100250114459303px" fill="#1e1e1e" text-anchor="start" style="white-space: pre;" direction="ltr" dominant-baseline="alphabetic">sp1_zkvm</text></g></svg>